# xmcd
#
# Track frame offsets: 
#        150
#        13406
#        38844
#        59979
#        82225
#        100147
#        117847
#        132475
#        148807
#        168260
#        193520
#        220479
#        241449
#
# Disc length: 3518 seconds
#
# Revision: 0
# Processed by: cddbd v1.5.2PL0 Copyright (c) Steve Scherf et al.
# Submitted via: ExactAudioCopy v1.2
#
DISCID=cc0dbc0d
DTITLE=Haole Kid Local Boy Blues Project - No Better Place to Be
DYEAR=2018
DGENRE=Blues
TTITLE0=Money Bird
TTITLE1=Carpel Tunnel
TTITLE2=Bluesy White Boy
TTITLE3=Alternative Facts
TTITLE4=The Luxury of Apathy
TTITLE5=Goodbye Baby Mama
TTITLE6=No Better Place to Be
TTITLE7=Cock Roach Kid
TTITLE8=Can't Buy Soul
TTITLE9=Mama Save Me
TTITLE10=Since I Had the Blues
TTITLE11=Plastic Lei
TTITLE12=My Sunshine
EXTD=
EXTT0=
EXTT1=
EXTT2=
EXTT3=
EXTT4=
EXTT5=
EXTT6=
EXTT7=
EXTT8=
EXTT9=
EXTT10=
EXTT11=
EXTT12=
PLAYORDER=
